C:\Users\israe\Dropbox\PhDWork\ExperimentalData\subject14\100\P14S100W01_filtered35.mot
nRows=11
nColumns=28

name C:\Users\israe\Dropbox\PhDWork\ExperimentalData\subject14\100\P14S100W01_filtered35.mot
datacolumns 28
datarows 11
range 0.6870000000 0.6970000000
endheader
time	ground_force_1_vx	ground_force_1_vy	ground_force_1_vz	ground_force_1_px	ground_force_1_py	ground_force_1_pz	ground_moment_1_mx	ground_moment_1_my	ground_moment_1_mz	ground_force_2_vx	ground_force_2_vy	ground_force_2_vz	ground_force_2_px	ground_force_2_py	ground_force_2_pz	ground_moment_2_mx	ground_moment_2_my	ground_moment_2_mz	ground_force_3_vx	ground_force_3_vy	ground_force_3_vz	ground_force_3_px	ground_force_3_py	ground_force_3_pz	ground_moment_3_mx	ground_moment_3_my	ground_moment_3_mz
        0.6870000000	      -22.2346753756	      490.9817619381	       18.9421938945	        0.1988394910	        0.0000558755	       -0.3004071320	       50.5664271360	       -2.1139697446	       51.8244099106	       -0.0000000000	        0.0000000006	        0.0000000001	        0.2029003487	       -0.0000795827	        0.4543649445	        0.0000000001	        0.0000000000	       -0.0000000000	       -0.0000000000	        0.0000000000	       -0.0000000000	        0.2076431971	        0.0000770316	        1.3583900146	        0.0000000000	        0.0000000000	        0.0000000000	
        0.6880000000	      -22.6714763243	      493.3135490994	       19.5241532940	        0.1988394910	        0.0000558755	       -0.3004071320	       50.6017305001	       -2.1560035541	       52.0678239422	       -0.0000000000	        0.0000000007	        0.0000000001	        0.2029003487	       -0.0000795827	        0.4543649445	        0.0000000002	        0.0000000000	       -0.0000000000	       -0.0000000000	        0.0000000000	        0.0000000000	        0.2076431971	        0.0000770316	        1.3583900146	       -0.0000000000	       -0.0000000000	       -0.0000000000	
        0.6890000000	      -23.1052527494	      495.6721159784	       20.1088515202	        0.1988394910	        0.0000558755	       -0.3004071320	       50.6426047467	       -2.1984661952	       52.3142182268	       -0.0000000000	        0.0000000009	        0.0000000001	        0.2029003487	       -0.0000795827	        0.4543649445	        0.0000000002	        0.0000000000	       -0.0000000000	       -0.0000000000	        0.0000000000	        0.0000000000	        0.2076431971	        0.0000770316	        1.3583900146	       -0.0000000000	       -0.0000000000	       -0.0000000000	
        0.6900000000	      -23.5331919684	      498.0551886947	       20.6944875946	        0.1988394910	        0.0000558755	       -0.3004071320	       50.6896143218	       -2.2412955246	       52.5638919627	       -0.0000000000	        0.0000000011	        0.0000000002	        0.2029003487	       -0.0000795827	        0.4543649445	        0.0000000003	        0.0000000000	       -0.0000000000	       -0.0000000000	        0.0000000000	        0.0000000000	        0.2076431971	        0.0000770316	        1.3583900146	       -0.0000000000	       -0.0000000000	       -0.0000000000	
        0.6910000000	      -23.9542394961	      500.4636434188	       21.2802860907	        0.1988394910	        0.0000558755	       -0.3004071320	       50.7427562728	       -2.2843398762	       52.8171809683	       -0.0000000001	        0.0000000013	        0.0000000002	        0.2029003487	       -0.0000795827	        0.4543649445	        0.0000000003	        0.0000000000	       -0.0000000000	       -0.0000000000	        0.0000000000	        0.0000000000	        0.2076431971	        0.0000770316	        1.3583900146	       -0.0000000000	       -0.0000000000	       -0.0000000000	
        0.6920000000	      -24.3686166002	      502.8993460264	       21.8668735692	        0.1988394910	        0.0000558755	       -0.3004071320	       50.8017051664	       -2.3274326390	       53.0744288142	       -0.0000000001	        0.0000000015	        0.0000000003	        0.2029003487	       -0.0000795827	        0.4543649445	        0.0000000003	        0.0000000000	       -0.0000000000	       -0.0000000000	        0.0000000000	        0.0000000000	        0.2076431971	        0.0000770316	        1.3583900146	       -0.0000000000	       -0.0000000000	       -0.0000000000	
        0.6930000000	      -24.7770602679	      505.3620747497	       22.4557496326	        0.1988394910	        0.0000558755	       -0.3004071320	       50.8660230177	       -2.3704320346	       53.3358609289	       -0.0000000001	        0.0000000015	        0.0000000004	        0.2029003487	       -0.0000795827	        0.4543649445	        0.0000000003	        0.0000000000	       -0.0000000000	       -0.0000000000	        0.0000000000	        0.0000000000	        0.2076431971	        0.0000770316	        1.3583900146	       -0.0000000000	       -0.0000000000	       -0.0000000000	
        0.6940000000	      -25.1806776298	      507.8492316427	       23.0482074927	        0.1988394910	        0.0000558755	       -0.3004071320	       50.9352079078	       -2.4132068723	       53.6013100160	       -0.0000000001	        0.0000000015	        0.0000000004	        0.2029003487	       -0.0000795827	        0.4543649445	        0.0000000003	        0.0000000000	       -0.0000000000	       -0.0000000000	        0.0000000000	        0.0000000000	        0.2076431971	        0.0000770316	        1.3583900146	       -0.0000000000	       -0.0000000000	       -0.0000000000	
        0.6950000000	      -25.5807712808	      510.3588570525	       23.6444333533	        0.1988394910	        0.0000558755	       -0.3004071320	       51.0087125798	       -2.4557236222	       53.8700705497	       -0.0000000001	        0.0000000014	        0.0000000005	        0.2029003487	       -0.0000795827	        0.4543649445	        0.0000000003	        0.0000000000	       -0.0000000000	       -0.0000000000	        0.0000000000	        0.0000000000	        0.2076431971	        0.0000770316	        1.3583900146	       -0.0000000000	       -0.0000000000	       -0.0000000000	
        0.6960000000	      -25.9784009410	      512.8919897573	       24.2434215307	        0.1988394910	        0.0000558755	       -0.3004071320	       51.0860007692	       -2.4981747101	       54.1411242564	       -0.0000000002	        0.0000000010	        0.0000000005	        0.2029003487	       -0.0000795827	        0.4543649445	        0.0000000002	        0.0000000000	       -0.0000000000	       -0.0000000000	        0.0000000000	        0.0000000000	        0.2076431971	        0.0000770316	        1.3583900146	       -0.0000000000	       -0.0000000000	       -0.0000000000	
        0.6970000000	      -26.3740841928	      515.4506689063	       24.8440927836	        0.1988394910	        0.0000558755	       -0.3004071320	       51.1665638334	       -2.5409462465	       54.4136009200	       -0.0000000002	        0.0000000004	        0.0000000005	        0.2029003487	       -0.0000795827	        0.4543649445	        0.0000000001	       -0.0000000000	        0.0000000000	       -0.0000000000	        0.0000000000	        0.0000000000	        0.2076431971	        0.0000770316	        1.3583900146	       -0.0000000000	       -0.0000000000	       -0.0000000000	
